<svg xmlns="http://www.w3.org/2000/svg" xmlns:xlink="http://www.w3.org/1999/xlink" width="1773.03" height="1013.424" viewBox="0 0 1773.03 1013.424">
  <defs>
    <filter id="Subtraction_15" x="453.971" y="15" width="736.891" height="257.265" filterUnits="userSpaceOnUse">
      <feOffset dx="17" input="SourceAlpha"/>
      <feGaussianBlur stdDeviation="13" result="blur"/>
      <feFlood flood-opacity="0.4"/>
      <feComposite operator="in" in2="blur"/>
      <feComposite in="SourceGraphic"/>
    </filter>
    <filter id="Subtraction_16" x="452.462" y="238.263" width="863.88" height="257.266" filterUnits="userSpaceOnUse">
      <feOffset dx="17" input="SourceAlpha"/>
      <feGaussianBlur stdDeviation="13" result="blur-2"/>
      <feFlood flood-opacity="0.4"/>
      <feComposite operator="in" in2="blur-2"/>
      <feComposite in="SourceGraphic"/>
    </filter>
    <filter id="Subtraction_17" x="452.463" y="466.415" width="999.519" height="257.264" filterUnits="userSpaceOnUse">
      <feOffset dx="17" input="SourceAlpha"/>
      <feGaussianBlur stdDeviation="13" result="blur-3"/>
      <feFlood flood-opacity="0.4"/>
      <feComposite operator="in" in2="blur-3"/>
      <feComposite in="SourceGraphic"/>
    </filter>
    <filter id="Subtraction_18" x="452.463" y="688.048" width="1127.222" height="257.264" filterUnits="userSpaceOnUse">
      <feOffset dx="17" input="SourceAlpha"/>
      <feGaussianBlur stdDeviation="13" result="blur-4"/>
      <feFlood flood-opacity="0.4"/>
      <feComposite operator="in" in2="blur-4"/>
      <feComposite in="SourceGraphic"/>
    </filter>
    <filter id="Subtraction_5" x="372.251" y="0" width="239.93" height="323.266" filterUnits="userSpaceOnUse">
      <feOffset dx="17" dy="-15" input="SourceAlpha"/>
      <feGaussianBlur stdDeviation="13" result="blur-5"/>
      <feFlood flood-opacity="0.4"/>
      <feComposite operator="in" in2="blur-5"/>
      <feComposite in="SourceGraphic"/>
    </filter>
    <filter id="Subtraction_4" x="254.925" y="245.264" width="476.09" height="319.189" filterUnits="userSpaceOnUse">
      <feOffset dx="17" dy="-15" input="SourceAlpha"/>
      <feGaussianBlur stdDeviation="13" result="blur-6"/>
      <feFlood flood-opacity="0.4"/>
      <feComposite operator="in" in2="blur-6"/>
      <feComposite in="SourceGraphic"/>
    </filter>
    <filter id="Subtraction_3" x="131.973" y="486.453" width="720.486" height="301.263" filterUnits="userSpaceOnUse">
      <feOffset dx="17" dy="-15" input="SourceAlpha"/>
      <feGaussianBlur stdDeviation="13" result="blur-7"/>
      <feFlood flood-opacity="0.4"/>
      <feComposite operator="in" in2="blur-7"/>
      <feComposite in="SourceGraphic"/>
    </filter>
    <filter id="Subtraction_2" x="0" y="709.716" width="982.926" height="303.708" filterUnits="userSpaceOnUse">
      <feOffset dx="17" dy="-15" input="SourceAlpha"/>
      <feGaussianBlur stdDeviation="13" result="blur-8"/>
      <feFlood flood-opacity="0.4"/>
      <feComposite operator="in" in2="blur-8"/>
      <feComposite in="SourceGraphic"/>
    </filter>
  </defs>
  <g id="Group_11" data-name="Group 11" transform="translate(-121 -199)">
    <path id="Path_14" data-name="Path 14" d="M-27.875,14.062H213.25L332.4,193.223H86.56Z" transform="translate(1294.679 462.303)" fill="#f15d77"/>
    <path id="Path_15" data-name="Path 15" d="M-27.875,14.062H213.25L332.4,193.223H84.549Z" transform="translate(1431.926 690.455)" fill="#48a3d8"/>
    <path id="Path_16" data-name="Path 16" d="M-27.875,14.062H213.25L332.4,193.223l-249.458.326Z" transform="translate(1561.632 912.088)" fill="#566c83"/>
    <path id="Path_13" data-name="Path 13" d="M-27.875,14.062H213.25L332.4,193.223H91.085Z" transform="translate(1164.973 239.039)" fill="#55bcc5"/>
    <g transform="matrix(1, 0, 0, 1, 121, 199)" filter="url(#Subtraction_15)">
      <path id="Subtraction_15-2" data-name="Subtraction 15" d="M658.892,179.265l0,0H0V0H540.027L658.89,179.262Z" transform="translate(475.97 54)" fill="#55bcc5"/>
    </g>
    <g transform="matrix(1, 0, 0, 1, 121, 199)" filter="url(#Subtraction_16)">
      <path id="Subtraction_16-2" data-name="Subtraction 16" d="M785.88,179.266l0,0H0V0H671.418l114.46,179.264Z" transform="translate(474.46 277.26)" fill="#f15d77"/>
    </g>
    <g transform="matrix(1, 0, 0, 1, 121, 199)" filter="url(#Subtraction_17)">
      <path id="Subtraction_17-2" data-name="Subtraction 17" d="M921.519,179.264H0V0H809.383Z" transform="translate(474.46 505.42)" fill="#48a3d8"/>
    </g>
    <g transform="matrix(1, 0, 0, 1, 121, 199)" filter="url(#Subtraction_18)">
      <path id="Subtraction_18-2" data-name="Subtraction 18" d="M1049.222,179.264H0V0H939.531Z" transform="translate(474.46 727.05)" fill="#566c83"/>
    </g>
    <g transform="matrix(1, 0, 0, 1, 121, 199)" filter="url(#Subtraction_5)">
      <path id="Subtraction_5-2" data-name="Subtraction 5" d="M161.93,245.266v0H0L80.965,0l80.965,245.263Z" transform="translate(394.25 54)" fill="#55bcc5"/>
    </g>
    <g transform="matrix(1, 0, 0, 1, 121, 199)" filter="url(#Subtraction_4)">
      <path id="Subtraction_4-2" data-name="Subtraction 4" d="M398.09,241.189H0l.627-1.459L99.887,8.522,103.545,0h191L298.2,8.522l99.259,231.208.626,1.457Z" transform="translate(276.93 299.26)" fill="#f15d77"/>
    </g>
    <g transform="matrix(1, 0, 0, 1, 121, 199)" filter="url(#Subtraction_3)">
      <path id="Subtraction_3-2" data-name="Subtraction 3" d="M642.486,223.263H0L104.582.17l.08-.17H537.825l.08.17L642.486,223.263Z" transform="translate(153.97 540.45)" fill="#48a3d8"/>
    </g>
    <g transform="matrix(1, 0, 0, 1, 121, 199)" filter="url(#Subtraction_2)">
      <path id="Subtraction_2-2" data-name="Subtraction 2" d="M904.926,225.708H0L110.522,0H794.4Z" transform="translate(22 763.72)" fill="#566c83"/>
    </g>
    <g id="Path_2" data-name="Path 2" transform="translate(507.98 476.851) rotate(18)" fill="#fff">
      <path d="M 3.728874921798706 19.88699531555176 L 12.48427963256836 5.742429256439209 L 12.14832019805908 17.19870376586914 L 3.728874921798706 19.88699531555176 Z" stroke="none"/>
      <path d="M 10.8212776184082 11.27901649475098 L 7.142301559448242 17.22249031066895 L 10.68010902404785 16.09288597106934 L 10.8212776184082 11.27901649475098 M 14.14729118347168 0.2058162689208984 L 13.61654090881348 18.30451583862305 L 0.3154516220092773 22.55148506164551 L 14.14729118347168 0.2058162689208984 Z" stroke="none" fill="#4a4747"/>
    </g>
    <g id="Path_3" data-name="Path 3" transform="translate(692.797 498.082) rotate(161)" fill="#4a4747">
      <path d="M 14.4476900100708 21.61264610290527 L 3.27629566192627 2.612759113311768 L 14.80249500274658 6.268436431884766 L 14.4476900100708 21.61264610290527 Z" stroke="none"/>
      <path d="M 13.06990337371826 16.30991744995117 L 13.27689456939697 7.35821008682251 L 6.552587985992432 5.225512504577637 L 13.06990337371826 16.30991744995117 M 15.82547664642334 26.91538238525391 L -3.712463467309135e-06 3.099975629083929e-06 L 16.32809638977051 5.17866325378418 L 15.82547664642334 26.91538238525391 Z" stroke="none" fill="#4a4747"/>
    </g>
    <g id="Path_4" data-name="Path 4" transform="translate(379.477 716.179)" fill="#4a4747">
      <path d="M 19.1984920501709 23.5894603729248 L 0.6403570175170898 23.5894603729248 L 30.38906288146973 -5.250231266021729 L 19.1984920501709 23.5894603729248 Z" stroke="none"/>
      <path d="M 29.09618186950684 -3.300487518310547 L 1.874441146850586 23.08945274353027 L 18.85618019104004 23.08945274353027 L 29.09618186950684 -3.300487518310547 M 31.68195152282715 -7.200017929077148 L 19.54080200195313 24.08945274353027 L -0.5937480926513672 24.08945274353027 L 31.68195152282715 -7.200017929077148 Z" stroke="none" fill="#4a4747"/>
    </g>
    <g id="Path_6" data-name="Path 6" transform="translate(780.67 711.29)" fill="#4a4747">
      <path d="M 33.3715934753418 23.5894603729248 L 13.00958824157715 23.5894603729248 L 0.7312811613082886 -5.356647968292236 L 33.3715934753418 23.5894603729248 Z" stroke="none"/>
      <path d="M 2.056316375732422 -3.513296127319336 L 13.34062004089355 23.08945274353027 L 32.05419921875 23.08945274353027 L 2.056316375732422 -3.513296127319336 M -0.5937538146972656 -7.200017929077148 L 34.68898773193359 24.08945274353027 L 12.67855644226074 24.08945274353027 L -0.5937538146972656 -7.200017929077148 Z" stroke="none" fill="#4a4747"/>
    </g>
    <g id="Path_7" data-name="Path 7" transform="translate(253.004 938.769)" fill="#4a4747">
      <path d="M 1.109127759933472 24.28654479980469 L 37.6165771484375 -8.84189510345459 L 22.39780616760254 24.26288223266602 L 1.109127759933472 24.28654479980469 Z" stroke="none"/>
      <path d="M 36.13983154296875 -6.826652526855469 L 2.40576171875 23.78510284423828 L 22.07719421386719 23.76323699951172 L 36.13983154296875 -6.826652526855469 M 39.09330368041992 -10.85711288452148 L 22.71841430664063 24.76252746582031 L -0.1874961853027344 24.78798675537109 L 39.09330368041992 -10.85711288452148 Z" stroke="none" fill="#4a4747"/>
    </g>
    <g id="Path_8" data-name="Path 8" transform="translate(900.025 937.139)" fill="#4a4747">
      <path d="M 36.55530166625977 25.07549858093262 L 15.97640514373779 25.05131721496582 L 1.265048384666443 -8.771178245544434 L 36.55530166625977 25.07549858093262 Z" stroke="none"/>
      <path d="M 2.717559814453125 -6.685309410095215 L 16.30433654785156 24.55170059204102 L 35.31011962890625 24.57402420043945 L 2.717559814453125 -6.685309410095215 M -0.1874961853027344 -10.85711765289307 L 37.80050277709961 25.57695198059082 L 15.64846420288086 25.55093193054199 L -0.1874961853027344 -10.85711765289307 Z" stroke="none" fill="#4a4747"/>
    </g>
    <text id="IEEE_HYDERABAD_SECTION" data-name="IEEE HYDERABAD SECTION" transform="translate(814 713)" fill="#fff" font-size="45" font-family="SegoeUI, Segoe UI"><tspan x="38.478" y="49">IEEE HYDERABAD SECTION</tspan></text>
    <text id="IEEE_SB_NSAKCET" data-name="IEEE SB NSAKCET" transform="translate(956 933)" fill="#fff" font-size="45" font-family="SegoeUI, Segoe UI"><tspan x="27.228" y="49">IEEE SB NSAKCET</tspan></text>
    <text id="IEEE_INDIA_COUNCIL" data-name="IEEE INDIA COUNCIL" transform="translate(741 488)" fill="#fff" font-size="45" font-family="SegoeUI, Segoe UI"><tspan x="11.858" y="49">IEEE INDIA COUNCIL</tspan></text>
    <text id="IEEE_REGION_10" data-name="IEEE REGION 10" transform="translate(663 258)" fill="#fff" font-size="45" font-family="SegoeUI, Segoe UI"><tspan x="0" y="49">IEEE REGION 10</tspan></text>
    <text id="IEEE_Region_10_is_home_to_organisational_units_in_Asia_and_Pacific." data-name="IEEE Region 10 is home to organisational units in Asia and Pacific." transform="translate(663 330)" fill="#fff" font-size="26" font-family="SegoeUI, Segoe UI"><tspan x="0" y="28">IEEE Region 10 is home to organisational </tspan><tspan x="0" y="63">units in Asia and Pacific.</tspan></text>
    <text id="IEEE_India_Council_is_the_umbrella_organisation_which_coordinates_IEEE_activities_in_India." data-name="IEEE India Council is the umbrella organisation which coordinates IEEE activities in India." transform="translate(761.926 563)" fill="#fff" font-size="26" font-family="SegoeUI, Segoe UI"><tspan x="0" y="28">IEEE India Council is the umbrella organisation </tspan><tspan x="0" y="63">which coordinates IEEE activities in India.</tspan></text>
    <text id="IEEE_Hyderabad_Section_caters_to_the_need_of_subscriptions_and_student_branches_in_Telangana_and_Andhra_Pradesh." data-name="IEEE Hyderabad Section caters to the need of subscriptions and student branches in Telangana and Andhra Pradesh." transform="translate(886.941 774)" fill="#fff" font-size="26" font-family="SegoeUI, Segoe UI"><tspan x="0" y="28">IEEE Hyderabad Section caters to the need of </tspan><tspan x="0" y="63">subscriptions and student branches in Telangana </tspan><tspan x="0" y="98">and Andhra Pradesh.</tspan></text>
    <text id="A_community_of_IEEE_members_in_NSAKCET_striving_towards_IEEE_s_core_purpose." data-name="A community of IEEE members in NSAKCET, striving towards IEEE&apos;s core purpose." transform="translate(1012 1012)" fill="#fff" font-size="26" font-family="SegoeUI, Segoe UI"><tspan x="0" y="28">A community of IEEE members in NSAKCET, </tspan><tspan x="0" y="63">striving towards IEEE&apos;s core purpose.</tspan></text>
  </g>
</svg>
